<svg width="100" height="32" viewBox="0 0 100 32" fill="none" xmlns="http://www.w3.org/2000/svg">
<g filter="url(#filter0_d_1_6365)">
<rect width="100" height="32" rx="16" fill="#202020"/>
</g>
<text fill="white" xml:space="preserve" style="white-space: pre" font-family="Inter" font-size="13" font-weight="500" letter-spacing="0px"><tspan x="11" y="20.2273">&#x410;&#x43a;&#x43a;&#x430;&#x443;&#x43d;&#x442;</tspan></text>
<rect x="71" y="3" width="26" height="26" rx="13" fill="#313131"/>
<path fill-rule="evenodd" clip-rule="evenodd" d="M85.4296 17.9678C86.7914 17.4057 87.7499 16.0648 87.7499 14.5C87.7499 12.4289 86.0709 10.75 83.9999 10.75C81.9288 10.75 80.2499 12.4289 80.2499 14.5C80.2499 16.0647 81.2082 17.4056 82.57 17.9677C81.1753 18.1999 79.8924 18.7659 78.8081 19.5806L80.1897 21.4194C81.2509 20.6221 82.5685 20.15 83.9996 20.15C85.4307 20.15 86.7483 20.6221 87.8096 21.4194L89.1911 19.5806C88.1069 18.766 86.8241 18.2 85.4296 17.9678Z" fill="white"/>
<defs>
<filter id="filter0_d_1_6365" x="-14" y="-11" width="100" height="32" filterUnits="userSpaceOnUse" color-interpolation-filters="sRGB">
<feFlood flood-opacity="0" result="BackgroundImageFix"/>
<feColorMatrix in="SourceAlpha" type="matrix" values="0 0 0 0 0 0 0 0 0 0 0 0 0 0 0 0 0 0 127 0" result="hardAlpha"/>
<feOffset dy="3"/>
<feGaussianBlur stdDeviation="7"/>
<feColorMatrix type="matrix" values="0 0 0 0 0 0 0 0 0 0 0 0 0 0 0 0 0 0 0.08 0"/>
<feBlend mode="normal" in2="BackgroundImageFix" result="effect1_dropShadow_1_6365"/>
<feBlend mode="normal" in="SourceGraphic" in2="effect1_dropShadow_1_6365" result="shape"/>
</filter>
</defs>
</svg>
